<?xml version="1.0" standalone="no"?>
<!DOCTYPE svg PUBLIC "-//W3C//DTD SVG 20010904//EN"
 "http://www.w3.org/TR/2001/REC-SVG-20010904/DTD/svg10.dtd">
<svg version="1.0" xmlns="http://www.w3.org/2000/svg"
 width="280.000000pt" height="280.000000pt" viewBox="0 0 280.000000 280.000000"
 preserveAspectRatio="xMidYMid meet">
<metadata>
Created by potrace 1.11, written by Peter Selinger 2001-2013
</metadata>
<g transform="translate(0.000000,280.000000) scale(0.100000,-0.100000)"
fill="#000000" stroke="none">
<path d="M182 2680 c-33 -15 -47 -29 -62 -62 -19 -42 -20 -76 -20 -1218 0
-1142 1 -1176 20 -1218 15 -33 29 -47 62 -62 41 -19 71 -20 676 -20 l632 0 0
505 0 505 -170 0 -170 0 0 195 0 195 170 0 170 0 0 183 c0 268 27 368 128 478
59 65 142 112 233 134 68 16 240 20 372 9 l77 -7 0 -177 0 -178 -142 -4 c-164
-4 -208 -18 -242 -78 -18 -30 -21 -57 -24 -197 l-4 -163 199 0 200 0 -13 -92
c-7 -51 -18 -139 -25 -196 l-12 -102 -173 0 -174 0 0 -505 0 -505 343 0 c317
0 345 2 385 20 33 15 47 29 62 62 19 42 20 76 20 1218 0 1142 -1 1176 -20
1218 -15 33 -29 47 -62 62 -42 19 -76 20 -1218 20 -1142 0 -1176 -1 -1218 -20z"/>
</g>
</svg>
